<?xml version="1.0" encoding="UTF-8" standalone="no"?>
<!-- Created with Inkscape (http://www.inkscape.org/) -->

<svg
   width="500"
   height="500"
   viewBox="0 0 500 500"
   version="1.1"
   id="svg1"
   xml:space="preserve"
   inkscape:version="1.3.2 (091e20e, 2023-11-25, custom)"
   sodipodi:docname="Second Nature Icon 0.01.svg"
   inkscape:export-filename="Second Nature Icon 0.01.png"
   inkscape:export-xdpi="96"
   inkscape:export-ydpi="96"
   xmlns:inkscape="http://www.inkscape.org/namespaces/inkscape"
   xmlns:sodipodi="http://sodipodi.sourceforge.net/DTD/sodipodi-0.dtd"
   xmlns="http://www.w3.org/2000/svg"
   xmlns:svg="http://www.w3.org/2000/svg"><sodipodi:namedview
     id="namedview1"
     pagecolor="#505050"
     bordercolor="#eeeeee"
     borderopacity="1"
     inkscape:showpageshadow="0"
     inkscape:pageopacity="0"
     inkscape:pagecheckerboard="0"
     inkscape:deskcolor="#505050"
     inkscape:document-units="px"
     inkscape:zoom="1.0337754"
     inkscape:cx="174.60273"
     inkscape:cy="217.64883"
     inkscape:window-width="1920"
     inkscape:window-height="1009"
     inkscape:window-x="-8"
     inkscape:window-y="-8"
     inkscape:window-maximized="1"
     inkscape:current-layer="layer3" /><defs
     id="defs1" /><g
     inkscape:groupmode="layer"
     id="layer3"
     inkscape:label="Background"><rect
       style="fill:#ffffff;fill-opacity:1;stroke:none;stroke-width:11.0607;stroke-linecap:square;paint-order:stroke fill markers;stroke-opacity:0"
       id="rect1"
       width="520.42255"
       height="518.48785"
       x="-9.6732807"
       y="-7.738625" /></g><g
     inkscape:groupmode="layer"
     id="layer2"
     inkscape:label="Outlines"><path
       style="fill:#2a64bd;fill-opacity:1;stroke:none;stroke-width:1px;stroke-linecap:butt;stroke-linejoin:miter;stroke-opacity:1"
       d="m 234.30664,39.290268 c 0,0 -2.6628,-18.40914 15.7321,-16.7581 18.3948,1.65104 37.4995,20.2721 37.4995,20.2721 0,0 -17.17,-3.62748 -19.8302,-0.96733 -2.6601,2.66016 -5.0785,13.30076 1.451,14.99359 6.5295,1.69282 25.6342,3.38565 33.6147,2.41832 7.9804,-0.96733 19.8302,13.05893 14.0262,15.47725 -5.8039,2.41832 -23.2159,0.48366 -29.2617,1.93466 -6.0458,1.45099 -15.9609,3.62748 -19.8302,3.62748 -3.8693,0 -12.5752,3.14381 -11.6079,10.88244 0.9673,7.73862 0.7255,19.346562 8.7059,14.268092 7.9805,-5.07848 21.0394,-7.980462 26.8434,-5.32031 5.804,2.66015 14.5099,13.30076 8.4641,14.26809 -6.0458,0.96733 -33.131,6.52947 -30.7127,10.88244 2.4184,4.35298 9.4315,1.20916 20.3139,0.24184 10.8825,-0.96733 23.6996,-0.7255 23.6996,-0.7255 0,0 -2.4183,10.64061 -8.4642,12.33343 -6.0458,1.69283 4.353,12.0916 15.4773,16.68641 11.1243,4.59481 24.9087,12.0916 27.8107,12.57527 2.902,0.48366 -0.2418,12.33343 -8.706,14.99358 -8.4641,2.66016 -32.4055,-2.41832 -35.7911,0.7255 -3.3857,3.14382 -4.5948,7.25496 4.1111,10.39878 8.706,3.14381 39.4187,10.64061 46.19,11.3661 6.7712,0.7255 12.817,10.15695 4.1111,9.91512 -8.706,-0.24184 -15.4773,2.17649 -18.8629,7.01313 -3.3857,4.83664 -10.1569,15.47725 -15.2354,15.47725 -5.0785,0 -26.3597,-4.35298 -30.4709,-0.96733 -4.1111,3.38565 -5.0784,10.64061 -10.8824,10.88244 -5.804,0.24183 -17.8956,5.07847 -14.2681,7.73862 3.6275,2.66016 16.4446,0.48367 30.229,0.7255 13.7844,0.24183 27.0852,4.59481 34.8238,6.28763 7.7387,1.69283 15.2354,7.01313 26.3597,6.7713 11.1243,-0.24183 24.4251,-0.7255 26.3597,0.24183 1.9347,0.96733 8.2223,19.10473 18.6211,23.45771 10.3988,4.35298 26.8433,7.98046 21.7649,15.96091 -5.0785,7.98046 -8.9478,11.84977 -22.7322,11.12428 -13.7845,-0.7255 -37.484,-4.83664 -43.7716,-1.20916 -6.2877,3.62748 -17.1701,4.35297 -23.2159,0.96732 -6.0458,-3.38564 -24.1832,-7.49679 -30.9545,-9.18961 -6.7713,-1.69283 -27.8107,-0.96733 -27.0852,2.41832 0.7255,3.38565 5.0785,9.18961 10.6406,9.67328 5.5621,0.48366 9.1896,8.70595 4.8366,10.88244 -4.3529,2.17649 -12.0916,2.90198 -21.7648,2.90198 -9.6733,0 -21.0394,0.24184 -21.0394,6.04581 0,5.80396 9.1896,8.94778 28.778,9.18961 19.5884,0.24183 82.2229,24.66687 91.1707,30.47084 8.9477,5.80397 16.9282,13.78442 6.0458,18.1374 -10.8825,4.35298 -19.8303,0.48366 -28.2944,4.83664 -8.4641,4.35298 -13.0589,15.23542 -34.0983,13.78443 -21.0394,-1.451 -43.2879,-0.24184 -46.1899,-4.59481 -2.902,-4.35298 0.9673,-13.30076 -3.6275,-15.96092 -4.5948,-2.66015 -10.1569,-1.45099 -10.3988,3.38565 -0.2418,4.83664 -0.9673,88.26869 -0.9673,88.26869 l -24.9087,0.24184 0.7255,-96.73282 c 0,0 -6.5295,-3.86931 -12.0916,-0.48366 -5.5621,3.38565 -65.5365,6.52946 -76.6608,3.62748 -11.1242,-2.90198 -17.6537,0 -18.3792,-4.11114 -0.7255,-4.11115 3.1438,-15.96092 -2.6602,-17.65374 -5.8039,-1.69283 -31.438098,2.41832 -38.451198,-0.96733 -7.0132,-3.38565 -18.8629,-13.05893 -7.0132,-16.20275 11.8498,-3.14381 21.2812,2.66016 24.9087,-6.0458 3.627498,-8.70595 4.352998,-14.99358 18.379298,-9.67328 14.0262,5.32031 29.5035,17.41191 43.2879,17.65374 13.7844,0.24183 18.6211,-0.96733 22.974,-4.35298 4.353,-3.38565 12.5753,-1.20916 16.4446,2.17649 3.8693,3.38565 22.2486,4.83664 26.1179,-1.69282 3.8693,-6.52947 -3.6275,-14.75176 -16.9283,-16.20275 -13.3007,-1.45099 -46.1899,-0.24183 -54.4122,-2.41832 -8.2223,-2.17649 -26.6015,3.86931 -29.9871,-1.20916 -3.3857,-5.07847 -2.902,-6.52946 -10.6407,-7.25496 -7.7386,-0.7255 -28.294298,3.38565 -35.065598,-0.7255 -6.7713,-4.11114 -6.5295,-5.07847 -3.1438,-8.94778 3.3856,-3.86931 6.0458,-5.56214 -0.7255,-6.7713 -6.7713,-1.20916 -13.5426,0.24183 -12.8171,-4.59481 0.7255,-4.83664 3.1438,-5.80397 12.3334,-8.94778 9.1896,-3.14382 25.150598,-10.64061 29.987198,-13.30076 4.8366,-2.66016 43.5298,-8.94779 48.6082,-0.96733 5.0785,7.98045 10.3988,8.94778 14.2681,7.01313 3.8693,-1.93466 2.6602,-4.59481 7.4968,-5.80397 4.8367,-1.20916 24.1832,0.24183 29.2617,-1.45099 5.0785,-1.69283 18.1374,-1.20916 17.1701,-7.01313 -0.9674,-5.80397 -5.3203,-4.11115 -20.0721,-6.28764 -14.7517,-2.17648 -34.3401,-8.46412 -61.4253,-16.44457 -27.0852,-7.98046 -39.1768,-9.43145 -44.013498,-9.91512 -4.8366,-0.48366 -9.1896,-6.28763 -2.1764,-12.57526 7.013098,-6.28764 12.091598,-11.84977 23.457698,-12.33344 11.3661,-0.48366 45.4644,0.48367 52.4775,-2.66015 7.0131,-3.14382 15.7191,-7.73862 5.5621,-10.88244 -10.1569,-3.14382 -29.0198,-1.69282 -33.8564,-2.17649 -4.8367,-0.48366 -15.4773,-1.20916 -17.6538,-4.83664 -2.1765,-3.62748 -5.5621,-10.64061 1.9347,-14.75175 7.4968,-4.11115 34.8238,-12.0916 45.9481,-16.44458 11.1242,-4.35298 28.5361,-15.23542 35.3074,-14.50992 6.7713,0.72549 19.8303,1.69282 18.1374,-2.66016 -1.6928,-4.35297 -6.2876,-9.67328 -12.3334,-4.83664 -6.0458,4.83664 -3.1438,7.01313 -14.9936,6.28764 -11.8497,-0.7255 -30.4708,0.72549 -33.8565,-2.17649 -3.3856,-2.90199 -9.6732,-6.28763 -2.9019,-9.91511 6.7713,-3.62748 4.3529,-6.04581 5.8039,-9.67329 1.451,-3.62748 7.7386,-14.50992 20.5557,-14.75175 12.8171,-0.24183 27.5689,2.17649 29.7454,-2.17649 2.1765,-4.35297 1.451,-10.39878 7.0131,-12.575262 5.5622,-2.17649 11.3661,-6.28764 8.706,-10.15695 -2.6602,-3.86931 -15.2354,-6.0458 -22.7322,-6.0458 -7.4968,0 -14.9936,-0.24183 -13.059,-6.28763 1.9347,-6.0458 5.5622,-10.15695 15.9609,-12.57527 10.3988,-2.41832 19.8303,-6.52946 17.4119,-9.67328 -2.4183,-3.14382 -5.8039,-6.28763 -10.8824,-2.66015 -5.0785,3.62748 -5.3203,7.98046 -10.1569,7.01313 -4.8367,-0.96733 -1.9347,1.93465 -7.9805,2.41832 -6.0458,0.48366 -13.5426,2.41832 -15.4772,-1.93466 -1.9347,-4.35298 -2.902,-6.52946 2.6601,-9.91511 5.5621,-3.38565 8.2223,-8.46412 8.9478,-10.64061 0.7255,-2.17649 3.8693,-5.56214 14.7517,-4.35298 10.8825,1.20916 13.3008,5.32031 16.4446,5.56214 3.1438,0.24183 5.0499,-0.85385 5.0499,-0.85385 z"
       id="path1" /></g></svg>
